<svg id="Capa_1" data-name="Capa 1" xmlns="http://www.w3.org/2000/svg" xmlns:xlink="http://www.w3.org/1999/xlink" viewBox="0 0 222 26.1"><defs><style>.cls-1{fill:url(#Degradado_sin_nombre_44);}.cls-2{fill:url(#Degradado_sin_nombre_36);}.cls-3{fill:url(#Degradado_sin_nombre_36-2);}.cls-4{fill:url(#Degradado_sin_nombre_44-2);}.cls-5{fill:url(#Degradado_sin_nombre_45);}.cls-6{fill:url(#Degradado_sin_nombre_45-2);}.cls-7{fill:url(#Degradado_sin_nombre_45-3);}.cls-8{fill:url(#Degradado_sin_nombre_45-4);}.cls-9{fill:url(#Degradado_sin_nombre_36-3);}.cls-10{fill:url(#Degradado_sin_nombre_64);}.cls-11{fill:url(#Degradado_sin_nombre_64-2);}.cls-12{fill:url(#Degradado_sin_nombre_64-3);}.cls-13{fill:url(#Degradado_sin_nombre_64-4);}.cls-14{fill:url(#Degradado_sin_nombre_63);}.cls-15{fill:url(#Degradado_sin_nombre_63-2);}.cls-16{fill:url(#Degradado_sin_nombre_44-3);}.cls-17{fill:url(#Degradado_sin_nombre_63-3);}.cls-18{fill:url(#Degradado_sin_nombre_44-4);}.cls-19{fill:url(#Degradado_sin_nombre_44-5);}.cls-20{fill:url(#Degradado_sin_nombre_63-4);}.cls-21{fill:url(#Degradado_sin_nombre_64-5);}.cls-22{fill:url(#Degradado_sin_nombre_64-6);}.cls-23{fill:url(#Degradado_sin_nombre_36-4);}.cls-24{fill:url(#Degradado_sin_nombre_63-5);}.cls-25{fill:url(#Degradado_sin_nombre_63-6);}.cls-26{fill:url(#Degradado_sin_nombre_44-6);}.cls-27{fill:url(#Degradado_sin_nombre_44-7);}.cls-28{fill:url(#Degradado_sin_nombre_44-8);}.cls-29{fill:url(#Degradado_sin_nombre_3);}.cls-30{fill:url(#Degradado_sin_nombre_3-2);}.cls-31{fill:url(#Degradado_sin_nombre_44-9);}.cls-32{fill:url(#Degradado_sin_nombre_45-5);}.cls-33{fill:url(#Degradado_sin_nombre_45-6);}.cls-34{fill:url(#Degradado_sin_nombre_45-7);}</style><linearGradient id="Degradado_sin_nombre_44" x1="78.02" y1="20.68" x2="94" y2="20.68" gradientUnits="userSpaceOnUse"><stop offset="0" stop-color="#ff86da"/><stop offset="1" stop-color="#8f8ada"/></linearGradient><linearGradient id="Degradado_sin_nombre_36" x1="32.72" y1="14.74" x2="39.42" y2="35.78" gradientUnits="userSpaceOnUse"><stop offset="0" stop-color="#8f8ada"/><stop offset="0.23" stop-color="#8faeda"/><stop offset="1" stop-color="#8ff8da"/></linearGradient><linearGradient id="Degradado_sin_nombre_36-2" x1="24.66" y1="34.21" x2="32.73" y2="8.53" xlink:href="#Degradado_sin_nombre_36"/><linearGradient id="Degradado_sin_nombre_44-2" x1="454.48" y1="-307.11" x2="454.48" y2="-281.58" gradientTransform="translate(516.95 -272.81) rotate(180)" xlink:href="#Degradado_sin_nombre_44"/><linearGradient id="Degradado_sin_nombre_45" x1="64.96" y1="11.17" x2="75.23" y2="11.17" gradientUnits="userSpaceOnUse"><stop offset="0" stop-color="#8f8ada"/><stop offset="1" stop-color="#ff86da"/></linearGradient><linearGradient id="Degradado_sin_nombre_45-2" x1="64.96" y1="30.07" x2="75.23" y2="30.07" xlink:href="#Degradado_sin_nombre_45"/><linearGradient id="Degradado_sin_nombre_45-3" x1="64.96" y1="20.63" x2="70.27" y2="20.63" xlink:href="#Degradado_sin_nombre_45"/><linearGradient id="Degradado_sin_nombre_45-4" x1="205.85" y1="20.39" x2="224" y2="20.39" xlink:href="#Degradado_sin_nombre_45"/><linearGradient id="Degradado_sin_nombre_36-3" x1="208.36" y1="20.39" x2="226.98" y2="20.39" xlink:href="#Degradado_sin_nombre_36"/><linearGradient id="Degradado_sin_nombre_64" x1="208.36" y1="8.92" x2="208.36" y2="32.53" gradientUnits="userSpaceOnUse"><stop offset="0" stop-color="#8f8ada"/><stop offset="0.32" stop-color="#8faeda"/><stop offset="1" stop-color="#8ff8da"/></linearGradient><linearGradient id="Degradado_sin_nombre_64-2" x1="56.86" y1="31.41" x2="48.69" y2="23.1" xlink:href="#Degradado_sin_nombre_64"/><linearGradient id="Degradado_sin_nombre_64-3" x1="47.57" y1="17.19" x2="56.07" y2="17.19" xlink:href="#Degradado_sin_nombre_64"/><linearGradient id="Degradado_sin_nombre_64-4" x1="45.31" y1="9.05" x2="45.31" y2="33.76" xlink:href="#Degradado_sin_nombre_64"/><linearGradient id="Degradado_sin_nombre_63" x1="4.5" y1="12.33" x2="4.5" y2="31.83" gradientUnits="userSpaceOnUse"><stop offset="0" stop-color="#feb4ab"/><stop offset="1" stop-color="#ff8bba"/></linearGradient><linearGradient id="Degradado_sin_nombre_63-2" x1="18.74" y1="32.18" x2="18.74" y2="10.04" xlink:href="#Degradado_sin_nombre_63"/><linearGradient id="Degradado_sin_nombre_44-3" x1="14.08" y1="7.21" x2="5.52" y2="7.21" xlink:href="#Degradado_sin_nombre_44"/><linearGradient id="Degradado_sin_nombre_63-3" x1="12.03" y1="21.43" x2="4.59" y2="13.28" xlink:href="#Degradado_sin_nombre_63"/><linearGradient id="Degradado_sin_nombre_44-4" x1="14.1" y1="6.33" x2="6.26" y2="6.33" xlink:href="#Degradado_sin_nombre_44"/><linearGradient id="Degradado_sin_nombre_44-5" x1="16.08" y1="19.62" x2="7.52" y2="19.62" xlink:href="#Degradado_sin_nombre_44"/><linearGradient id="Degradado_sin_nombre_63-4" x1="16.94" y1="16.32" x2="9.81" y2="24.56" xlink:href="#Degradado_sin_nombre_63"/><linearGradient id="Degradado_sin_nombre_64-5" x1="185.41" y1="12.87" x2="185.41" y2="33.04" xlink:href="#Degradado_sin_nombre_64"/><linearGradient id="Degradado_sin_nombre_64-6" x1="197.15" y1="12.87" x2="197.15" y2="33.04" xlink:href="#Degradado_sin_nombre_64"/><linearGradient id="Degradado_sin_nombre_36-4" x1="185.22" y1="26.13" x2="193.61" y2="-0.58" xlink:href="#Degradado_sin_nombre_36"/><linearGradient id="Degradado_sin_nombre_63-5" x1="100.23" y1="9.69" x2="100.23" y2="31.72" xlink:href="#Degradado_sin_nombre_63"/><linearGradient id="Degradado_sin_nombre_63-6" x1="109.79" y1="22.36" x2="103.95" y2="13.4" xlink:href="#Degradado_sin_nombre_63"/><linearGradient id="Degradado_sin_nombre_44-6" x1="144.61" y1="9.47" x2="144.61" y2="31.5" xlink:href="#Degradado_sin_nombre_44"/><linearGradient id="Degradado_sin_nombre_44-7" x1="154.17" y1="22.14" x2="148.34" y2="13.18" xlink:href="#Degradado_sin_nombre_44"/><linearGradient id="Degradado_sin_nombre_44-8" x1="159.26" y1="34.48" x2="154.64" y2="27.39" xlink:href="#Degradado_sin_nombre_44"/><linearGradient id="Degradado_sin_nombre_3" x1="121.29" y1="11.48" x2="137.67" y2="11.48" gradientUnits="userSpaceOnUse"><stop offset="0" stop-color="#8ff8da"/><stop offset="0.68" stop-color="#8faeda"/><stop offset="1" stop-color="#8f8ada"/></linearGradient><linearGradient id="Degradado_sin_nombre_3-2" x1="129.48" y1="33.2" x2="129.48" y2="14.73" xlink:href="#Degradado_sin_nombre_3"/><linearGradient id="Degradado_sin_nombre_44-9" x1="351.47" y1="-306.91" x2="351.47" y2="-281.37" gradientTransform="translate(516.95 -272.81) rotate(180)" xlink:href="#Degradado_sin_nombre_44"/><linearGradient id="Degradado_sin_nombre_45-5" x1="167.97" y1="10.97" x2="178.24" y2="10.97" xlink:href="#Degradado_sin_nombre_45"/><linearGradient id="Degradado_sin_nombre_45-6" x1="167.97" y1="29.86" x2="178.24" y2="29.86" xlink:href="#Degradado_sin_nombre_45"/><linearGradient id="Degradado_sin_nombre_45-7" x1="167.97" y1="20.42" x2="173.28" y2="20.42" xlink:href="#Degradado_sin_nombre_45"/></defs><path class="cls-1" d="M94,23.62a11.38,11.38,0,0,1-.43,3.19,10.33,10.33,0,0,1-1.21,2.72,8.76,8.76,0,0,1-1.83,2.09A8.25,8.25,0,0,1,88.24,33a7.15,7.15,0,0,1-1.11.35,5.44,5.44,0,0,1-1.13.13,5.27,5.27,0,0,1-1.12-.13,7.39,7.39,0,0,1-1.1-.35,8.25,8.25,0,0,1-2.29-1.36,8.76,8.76,0,0,1-1.83-2.09,10.33,10.33,0,0,1-1.21-2.72A11.38,11.38,0,0,1,78,23.62V11.35c0-1.9,1.19-3.45,2.66-3.45h0c1.47,0,2.66,1.55,2.66,3.45V23.2a3.66,3.66,0,0,0,.22,1.3,3.41,3.41,0,0,0,.59,1,2.71,2.71,0,0,0,.85.67,2.2,2.2,0,0,0,1,.24,2.25,2.25,0,0,0,1-.24,2.71,2.71,0,0,0,.85-.67,3.41,3.41,0,0,0,.59-1,3.66,3.66,0,0,0,.22-1.3V11.35c0-1.9,1.19-3.45,2.66-3.45h0C92.81,7.9,94,9.45,94,11.35Z" transform="translate(-2 -7.9)"/><path class="cls-2" d="M37.48,34h0c1.74,0,2.94-2.24,2.34-4.35L34,9.21H31.45c-1,0-1.66,1.23-1.36,2.43l5,20.12A2.65,2.65,0,0,0,37.48,34Z" transform="translate(-2 -7.9)"/><path class="cls-3" d="M26,34h0a2.65,2.65,0,0,0,2.37-2.24L34,9.21H31.7a3.34,3.34,0,0,0-3,2.69L23.66,29.65C23.06,31.76,24.26,34,26,34Z" transform="translate(-2 -7.9)"/><path class="cls-4" d="M60,17.64v11C60,31,61.51,33,63.39,33H65V8.22H63.39c-1.88,0-3.4,2-3.4,4.4v5Z" transform="translate(-2 -7.9)"/><path class="cls-5" d="M75.23,11.19v0c0-1.63-1-2.94-2.26-2.94H65v5.91h8C74.22,14.13,75.23,12.81,75.23,11.19Z" transform="translate(-2 -7.9)"/><path class="cls-6" d="M73,27.13H65V33h8c1.25,0,2.26-1.32,2.26-2.94h0C75.23,28.44,74.22,27.13,73,27.13Z" transform="translate(-2 -7.9)"/><path class="cls-7" d="M70.27,20.64v0c0-1.62-1-2.94-2.26-2.94H65v5.91H68C69.26,23.58,70.27,22.27,70.27,20.64Z" transform="translate(-2 -7.9)"/><path class="cls-8" d="M218.14,31.81a10.08,10.08,0,0,0,3.05-2.65,13,13,0,0,0,2.06-3.94,15.9,15.9,0,0,0,0-9.65,12.92,12.92,0,0,0-2.06-3.94A10.12,10.12,0,0,0,218.14,9a7.6,7.6,0,0,0-3.75-1h-3.52v6h2.93a4,4,0,0,1,1.94.49,4.92,4.92,0,0,1,1.56,1.36,6.83,6.83,0,0,1,1,2,8.25,8.25,0,0,1,0,4.95,7,7,0,0,1-1,2,5,5,0,0,1-1.56,1.35,3.87,3.87,0,0,1-1.94.5h-2.93v6h3.52A7.61,7.61,0,0,0,218.14,31.81Z" transform="translate(-2 -7.9)"/><path class="cls-9" d="M218.14,31.81a10.08,10.08,0,0,0,3.05-2.65,13,13,0,0,0,2.06-3.94,15.9,15.9,0,0,0,0-9.65,12.92,12.92,0,0,0-2.06-3.94A10.12,10.12,0,0,0,218.14,9a7.6,7.6,0,0,0-3.75-1h-3.52v6h2.93a4,4,0,0,1,1.94.49,4.92,4.92,0,0,1,1.56,1.36,6.83,6.83,0,0,1,1,2,8.25,8.25,0,0,1,0,4.95,7,7,0,0,1-1,2,5,5,0,0,1-1.56,1.35,3.87,3.87,0,0,1-1.94.5h-2.93l-2.51,6h6A7.61,7.61,0,0,0,218.14,31.81Z" transform="translate(-2 -7.9)"/><path class="cls-10" d="M210.87,14V8h-2.16c-1.58,0-2.86,1.66-2.86,3.71V29.53c0,1.8,1.12,3.26,2.51,3.26h0c1.39,0,2.51-1.46,2.51-3.26V14Z" transform="translate(-2 -7.9)"/><path class="cls-11" d="M47.93,25.49l4.51,7.06a2.36,2.36,0,0,0,2,1.19h0c2.06,0,3.24-3.06,2-5.2l-4.93-8.35Z" transform="translate(-2 -7.9)"/><path class="cls-12" d="M51.76,10.05,47.57,16.8v8.12l.36.57L55.47,14.1c1.36-2,.25-5.21-1.83-5.21h0A2.27,2.27,0,0,0,51.76,10.05Z" transform="translate(-2 -7.9)"/><path class="cls-13" d="M47.93,16.91V12.33c0-1.88-1.18-3.4-2.62-3.4h0c-1.45,0-2.63,1.52-2.63,3.4v18c0,1.88,1.18,3.4,2.63,3.4h0c1.44,0,2.62-1.52,2.62-3.4V16.91Z" transform="translate(-2 -7.9)"/><path class="cls-14" d="M6.68,8.93H4.5C3.12,8.93,2,10.38,2,12.17v18.3c0,1.79,1.12,3.24,2.5,3.24h0c1.38,0,2.5-1.45,2.5-3.24V9.08A.42.42,0,0,0,6.68,8.93Z" transform="translate(-2 -7.9)"/><path class="cls-15" d="M16.58,8.93a.47.47,0,0,0-.38.26L16.28,21v9.5c0,1.79,1.12,3.24,2.5,3.24h0c1.39,0,2.5-1.45,2.5-3.24V12.17c0-1.79-1.11-3.24-2.5-3.24Z" transform="translate(-2 -7.9)"/><path d="M16.19,9.21,11.63,19,7.1,9.21A1.47,1.47,0,0,0,7,9.08V21l4.09,8.75a.44.44,0,0,0,.24.26,1,1,0,0,0,.32.06A.93.93,0,0,0,12,30a.46.46,0,0,0,.25-.26L16.28,21,16.2,9.19Z" transform="translate(-2 -7.9)"/><polygon class="cls-16" points="14.29 13.07 14.2 1.29 14.26 13.13 14.29 13.07"/><path class="cls-17" d="M7.1,9.21A1.47,1.47,0,0,0,7,9.08V21l1.71,3.67,2.83-5.82Z" transform="translate(-2 -7.9)"/><polygon class="cls-18" points="14.08 1.54 9.54 10.92 9.63 11.12 14.08 1.54"/><path class="cls-19" d="M11.33,30a1,1,0,0,0,.32.06A.93.93,0,0,0,12,30a.46.46,0,0,0,.25-.26L16.26,21,16.2,9.19l-.12.25L11.63,19l-.09-.2L8.71,24.64l2.38,5.08A.44.44,0,0,0,11.33,30Z" transform="translate(-2 -7.9)"/><path class="cls-20" d="M11.33,30a1,1,0,0,0,.32.06A.93.93,0,0,0,12,30a.46.46,0,0,0,.25-.26L16.26,21,16.2,9.19l-.12.25L11.63,19l-.09-.2L8.71,24.64l2.38,5.08A.44.44,0,0,0,11.33,30Z" transform="translate(-2 -7.9)"/><path class="cls-21" d="M188,8.76l0,0h-1.89c-1.76,0-3.18,1.85-3.18,4.12V30.16c0,1.82,1.14,3.3,2.54,3.3h0c1.41,0,2.55-1.48,2.55-3.3V8.76Z" transform="translate(-2 -7.9)"/><path class="cls-22" d="M194.59,8.71V33.46h2.57c1.41,0,2.55-1.48,2.55-3.3V12c0-1.82-1.14-3.3-2.55-3.3Z" transform="translate(-2 -7.9)"/><polygon class="cls-23" points="185.96 0.85 185.96 12.34 192.59 25.56 192.59 14.16 185.96 0.85"/><path class="cls-24" d="M97.67,11.74V29.88c0,1.83,1.14,3.32,2.56,3.32h0c1.41,0,2.56-1.49,2.56-3.32V8.41h-2.56C98.81,8.41,97.67,9.9,97.67,11.74Z" transform="translate(-2 -7.9)"/><path class="cls-25" d="M112.7,13.33a8.19,8.19,0,0,0-1.55-2.62A7.32,7.32,0,0,0,108.91,9a6.15,6.15,0,0,0-2.65-.61h-3.47v5.53h3.1a1.74,1.74,0,0,1,.84.21,2.07,2.07,0,0,1,.69.57,2.86,2.86,0,0,1,.47.84,3.33,3.33,0,0,1,0,2.1,3.13,3.13,0,0,1-.47.84,2.34,2.34,0,0,1-.69.57,1.74,1.74,0,0,1-.84.2h-3.1V25.5h3.47a5.59,5.59,0,0,0,2.65-.68,7.56,7.56,0,0,0,2.24-1.89,9.44,9.44,0,0,0,1.55-2.79,10,10,0,0,0,.58-3.45A9.37,9.37,0,0,0,112.7,13.33Z" transform="translate(-2 -7.9)"/><path class="cls-26" d="M142.05,11.52V29.66c0,1.83,1.15,3.32,2.56,3.32h0c1.42,0,2.56-1.49,2.56-3.32V8.2h-2.56C143.2,8.2,142.05,9.68,142.05,11.52Z" transform="translate(-2 -7.9)"/><path class="cls-27" d="M157.09,13.11a8.4,8.4,0,0,0-1.55-2.61,7.12,7.12,0,0,0-2.25-1.7,6.07,6.07,0,0,0-2.64-.6h-3.48v5.52h3.11a1.73,1.73,0,0,1,.83.21,2.11,2.11,0,0,1,.69.57,2.65,2.65,0,0,1,.47.84,3.33,3.33,0,0,1,0,2.1,2.88,2.88,0,0,1-.47.84,2.11,2.11,0,0,1-.69.57,1.73,1.73,0,0,1-.83.21h-3.11v6.22h3.48a5.41,5.41,0,0,0,2.64-.68,7.47,7.47,0,0,0,2.25-1.89,9.91,9.91,0,0,0,1.55-2.79,10.24,10.24,0,0,0,.58-3.45A9.6,9.6,0,0,0,157.09,13.11Z" transform="translate(-2 -7.9)"/><path class="cls-28" d="M157.8,28.16l-2.36-5.4a7.77,7.77,0,0,1-4.58,2.56l2.61,6A2.47,2.47,0,0,0,155.64,33h0C157.55,33,158.75,30.31,157.8,28.16Z" transform="translate(-2 -7.9)"/><path class="cls-29" d="M135.31,8.41H123.66c-1.31,0-2.37,1.38-2.37,3.07h0c0,1.69,1.06,3.07,2.37,3.07h11.65c1.3,0,2.36-1.38,2.36-3.07h0C137.67,9.79,136.61,8.41,135.31,8.41Z" transform="translate(-2 -7.9)"/><path class="cls-30" d="M129.25,33.2h.47c1.3,0,2.36-1.37,2.36-3.07V14.55h-5.19V30.13C126.89,31.83,127.94,33.2,129.25,33.2Z" transform="translate(-2 -7.9)"/><path class="cls-31" d="M163,17.44v11c0,2.43,1.52,4.4,3.4,4.4H168V8h-1.58c-1.88,0-3.4,2-3.4,4.41v5Z" transform="translate(-2 -7.9)"/><path class="cls-32" d="M178.24,11v0c0-1.62-1-2.94-2.27-2.94h-8v5.91h8C177.22,13.92,178.24,12.61,178.24,11Z" transform="translate(-2 -7.9)"/><path class="cls-33" d="M176,26.92h-8V32.8h8c1.25,0,2.27-1.31,2.27-2.94h0C178.24,28.24,177.22,26.92,176,26.92Z" transform="translate(-2 -7.9)"/><path class="cls-34" d="M173.28,20.44v0c0-1.62-1-2.94-2.27-2.94h-3v5.91h3C172.26,23.38,173.28,22.06,173.28,20.44Z" transform="translate(-2 -7.9)"/></svg>